<?xml version="1.0" encoding="iso-8859-1"?>
<!-- Generator: Adobe Illustrator 23.0.1, SVG Export Plug-In . SVG Version: 6.00 Build 0)  -->
<svg version="1.1" id="Layer_1" xmlns="http://www.w3.org/2000/svg" xmlns:xlink="http://www.w3.org/1999/xlink" x="0px" y="0px"
	 viewBox="0 0 75.245 94.304" style="enable-background:new 0 0 75.245 94.304;" xml:space="preserve">
<g>
	<g>
		<defs>
			<polygon id="SVGID_1_" points="1.768,35.541 8.747,42.52 32.931,18.095 32.931,93.054 42.436,93.054 42.436,18.215 66.5,42.52 
				73.478,35.541 39.187,1.25 36.059,1.25 			"/>
		</defs>
		<clipPath id="SVGID_2_">
			<use xlink:href="#SVGID_1_"  style="overflow:visible;"/>
		</clipPath>
		<g style="clip-path:url(#SVGID_2_);">
			<g>
				<rect x="1.768" y="1.25" style="fill:#F8F4EA;" width="71.71" height="91.804"/>
			</g>
		</g>
	</g>
	<g>
		<g>
			<path style="fill:#231F20;" d="M35.541,0h4.163l35.541,35.541l-8.75,8.751l-22.81-23.038v73.05H31.681v-73.17L8.751,44.292
				L0,35.541L35.541,0z M38.669,2.5h-2.093L3.535,35.541l5.207,5.207l25.438-25.692v76.748h7.005V15.176l25.318,25.571l5.206-5.207
				L38.669,2.5z"/>
		</g>
	</g>
</g>
</svg>
