<?xml version="1.0" encoding="iso-8859-1"?>
<!-- Generator: Adobe Illustrator 23.0.1, SVG Export Plug-In . SVG Version: 6.00 Build 0)  -->
<svg version="1.1" id="Layer_1" xmlns="http://www.w3.org/2000/svg" xmlns:xlink="http://www.w3.org/1999/xlink" x="0px" y="0px"
	 viewBox="0 0 94.304 75.245" style="enable-background:new 0 0 94.304 75.245;" xml:space="preserve">
<g>
	<g>
		<defs>
			<polygon id="SVGID_1_" points="58.763,1.768 51.784,8.747 76.209,32.931 1.25,32.931 1.25,42.436 76.089,42.436 51.784,66.5 
				58.763,73.478 93.054,39.187 93.054,36.059 			"/>
		</defs>
		<clipPath id="SVGID_2_">
			<use xlink:href="#SVGID_1_"  style="overflow:visible;"/>
		</clipPath>
		<g style="clip-path:url(#SVGID_2_);">
			<g>
				<rect x="1.25" y="1.768" style="fill:#00AFFF;" width="91.804" height="71.71"/>
			</g>
		</g>
	</g>
	<g>
		<g>
			<path style="fill:#231F20;" d="M94.304,35.541v4.163L58.763,75.245l-8.751-8.75l23.038-22.81H0V31.681h73.17L50.012,8.751
				L58.763,0L94.304,35.541z M91.804,38.669v-2.093L58.763,3.535l-5.207,5.207l25.692,25.438H2.5v7.005h76.628L53.557,66.504
				l5.207,5.206L91.804,38.669z"/>
		</g>
	</g>
</g>
</svg>
