<?xml version="1.0" encoding="iso-8859-1"?>
<!-- Generator: Adobe Illustrator 23.0.1, SVG Export Plug-In . SVG Version: 6.00 Build 0)  -->
<svg version="1.1" id="Layer_1" xmlns="http://www.w3.org/2000/svg" xmlns:xlink="http://www.w3.org/1999/xlink" x="0px" y="0px"
	 viewBox="0 0 75.245 94.304" style="enable-background:new 0 0 75.245 94.304;" xml:space="preserve">
<g>
	<g>
		<defs>
			<polygon id="SVGID_1_" points="73.477,58.763 66.498,51.784 42.314,76.209 42.314,1.25 32.809,1.25 32.809,76.089 8.745,51.784 
				1.767,58.763 36.058,93.054 39.186,93.054 			"/>
		</defs>
		<clipPath id="SVGID_2_">
			<use xlink:href="#SVGID_1_"  style="overflow:visible;"/>
		</clipPath>
		<g style="clip-path:url(#SVGID_2_);">
			<g>
				<rect x="1.767" y="1.25" style="fill:#00AFFF;" width="71.71" height="91.804"/>
			</g>
		</g>
	</g>
	<g>
		<g>
			<path style="fill:#231F20;" d="M39.704,94.304h-4.163L0,58.763l8.75-8.751L31.56,73.05V0h12.005v73.17l22.93-23.158l8.751,8.751
				L39.704,94.304z M36.576,91.804h2.093L71.71,58.763l-5.207-5.207L41.064,79.248V2.5H34.06v76.628L8.741,53.557l-5.206,5.207
				L36.576,91.804z"/>
		</g>
	</g>
</g>
</svg>
