<?xml version="1.0" encoding="iso-8859-1"?>
<!-- Generator: Adobe Illustrator 23.0.1, SVG Export Plug-In . SVG Version: 6.00 Build 0)  -->
<svg version="1.1" id="Layer_1" xmlns="http://www.w3.org/2000/svg" xmlns:xlink="http://www.w3.org/1999/xlink" x="0px" y="0px"
	 viewBox="0 0 94.304 75.245" style="enable-background:new 0 0 94.304 75.245;" xml:space="preserve">
<g>
	<g>
		<defs>
			<polygon id="SVGID_1_" points="35.541,73.477 42.52,66.498 18.095,42.314 93.054,42.314 93.054,32.809 18.215,32.809 
				42.52,8.745 35.541,1.767 1.25,36.058 1.25,39.186 			"/>
		</defs>
		<clipPath id="SVGID_2_">
			<use xlink:href="#SVGID_1_"  style="overflow:visible;"/>
		</clipPath>
		<g style="clip-path:url(#SVGID_2_);">
			<g>
				<rect x="1.25" y="1.767" style="fill:#00AFFF;" width="91.804" height="71.71"/>
			</g>
		</g>
	</g>
	<g>
		<g>
			<path style="fill:#231F20;" d="M0,39.704v-4.163L35.541,0l8.751,8.75L21.254,31.56h73.05v12.005h-73.17l23.158,22.93
				l-8.751,8.751L0,39.704z M2.5,36.576v2.093L35.541,71.71l5.207-5.207L15.056,41.064h76.748V34.06H15.176L40.748,8.741
				l-5.207-5.206L2.5,36.576z"/>
		</g>
	</g>
</g>
</svg>
