<?xml version="1.0" encoding="iso-8859-1"?>
<!-- Generator: Adobe Illustrator 23.0.1, SVG Export Plug-In . SVG Version: 6.00 Build 0)  -->
<svg version="1.1" id="Layer_1" xmlns="http://www.w3.org/2000/svg" xmlns:xlink="http://www.w3.org/1999/xlink" x="0px" y="0px"
	 viewBox="0 0 595.276 131.286" style="enable-background:new 0 0 595.276 131.286;" xml:space="preserve">
<g>
	<g>
		<path d="M297.665,129.286h-15.274V25.458l-40.004,103.828h-11.819L190.563,25.458v103.828h-14.91V2h22.365l38.55,101.1L275.48,2
			h22.184V129.286z"/>
	</g>
	<g>
		<path d="M392.394,66.37v62.915h-14.729v-15.638c-7.637,14.548-21.275,17.639-30.366,17.639c-15.82,0-30.185-9.637-30.185-28.003
			c0-17.093,12.546-24.912,28.185-26.912l20.547-2.728c6.546-0.908,11.819-2.909,11.819-10.545c0-10.002-8.546-14.911-20.002-14.911
			c-12.728,0-20.729,6.182-22.184,16.547h-14.91c1.819-19.455,17.274-29.094,37.822-29.094
			C379.665,35.64,392.394,46.005,392.394,66.37z M364.755,85.463l-13.093,2c-11.092,1.454-19.275,5.819-19.275,16.002
			c0,10.182,8.001,14.365,17.638,14.365c13.274,0,27.458-9.275,27.458-28.003V82.19C374.029,84.19,370.574,84.736,364.755,85.463z"
			/>
	</g>
	<g>
		<path d="M495.381,129.286h-14.546v-18.002c-4.364,11.093-14.183,20.003-31.458,20.003c-28.367,0-41.641-23.821-41.641-47.823
			c0-23.82,13.456-47.823,41.823-47.823c15.638,0,25.821,7.275,30.73,16.729V0h15.092V129.286z M479.926,82.736
			c0-17.639-8.91-33.639-28.548-33.639c-19.82,0-28.185,16.547-28.185,34.185c0,17.82,8.365,34.003,28.002,34.003
			C471.016,117.285,479.926,100.555,479.926,82.736z"/>
	</g>
	<g>
		<path d="M526.906,87.1c0.545,20.728,12.91,30.731,28.73,30.731c12.183,0,22.002-6.001,24.547-17.093h14.729
			c-4,20.911-22.002,30.548-40.003,30.548c-22.002,0-42.732-15.092-42.732-48.004c0-33.095,20.911-47.642,42.913-47.642
			c22.002,0,40.185,14.184,40.185,44.368V87.1H526.906z M527.269,74.917h52.914c0-16.002-10.546-26.184-25.456-26.184
			C541.453,48.733,529.27,56.733,527.269,74.917z"/>
	</g>
	<g>
		<path d="M64.505,129.286H44.976V79.752L0,2h22.89l32.197,59.169L87.114,2h22.366L64.505,79.752V129.286z M49.412,124.849h10.656
			V78.562L101.79,6.437H89.757l-34.66,64.032L20.253,6.437H7.691l41.721,72.125V124.849z"/>
	</g>
</g>
</svg>
