<?xml version="1.0" encoding="iso-8859-1"?>
<!-- Generator: Adobe Illustrator 23.0.1, SVG Export Plug-In . SVG Version: 6.00 Build 0)  -->
<svg version="1.1" id="Layer_1" xmlns="http://www.w3.org/2000/svg" xmlns:xlink="http://www.w3.org/1999/xlink" x="0px" y="0px"
	 viewBox="0 0 31.073 31.074" style="enable-background:new 0 0 31.073 31.074;" xml:space="preserve">
<g>
	<path style="fill:#231F20;" d="M0.815,25.714c0.397,1.022,0.929,1.888,1.792,2.752c0.864,0.864,1.73,1.395,2.752,1.792
		c0.989,0.384,2.118,0.647,3.771,0.722c1.657,0.076,2.187,0.094,6.406,0.094c4.22,0,4.749-0.018,6.406-0.094
		c1.654-0.075,2.783-0.338,3.771-0.722c1.022-0.397,1.889-0.928,2.752-1.792c0.863-0.864,1.395-1.73,1.792-2.752
		c0.384-0.988,0.647-2.118,0.723-3.772c0.075-1.656,0.093-2.186,0.093-6.405c0-4.22-0.018-4.749-0.093-6.406
		c-0.076-1.653-0.339-2.783-0.723-3.771c-0.397-1.022-0.929-1.888-1.792-2.752c-0.863-0.864-1.73-1.395-2.752-1.792
		c-0.988-0.384-2.117-0.647-3.771-0.722C20.285,0.018,19.756,0,15.536,0c-4.219,0-4.749,0.018-6.406,0.094
		C7.477,0.169,6.348,0.432,5.359,0.816C4.337,1.213,3.471,1.744,2.607,2.608C1.745,3.472,1.212,4.338,0.815,5.36
		C0.431,6.348,0.168,7.478,0.094,9.131c-0.069,1.506-0.09,2.09-0.094,5.352v2.107c0.003,3.262,0.024,3.846,0.094,5.352
		C0.168,23.596,0.431,24.726,0.815,25.714z M2.891,9.259c0.069-1.515,0.322-2.338,0.535-2.885c0.281-0.726,0.618-1.243,1.162-1.787
		c0.543-0.544,1.061-0.88,1.786-1.162C6.921,3.212,7.745,2.959,9.258,2.89c1.638-0.075,2.13-0.091,6.278-0.091
		c4.149,0,4.64,0.016,6.279,0.091c1.514,0.069,2.337,0.322,2.885,0.535c0.724,0.282,1.242,0.618,1.786,1.162
		c0.544,0.544,0.881,1.061,1.162,1.787c0.213,0.547,0.466,1.37,0.535,2.885c0.074,1.638,0.091,2.129,0.091,6.278
		c0,4.149-0.017,4.64-0.091,6.278c-0.069,1.515-0.322,2.337-0.535,2.885c-0.281,0.725-0.618,1.243-1.162,1.786
		c-0.544,0.544-1.062,0.881-1.786,1.162c-0.548,0.213-1.371,0.466-2.885,0.536c-1.639,0.074-2.13,0.09-6.279,0.09
		c-4.148,0-4.64-0.016-6.278-0.09c-1.514-0.07-2.337-0.323-2.885-0.536c-0.725-0.281-1.243-0.618-1.786-1.162
		c-0.544-0.543-0.881-1.061-1.162-1.786c-0.213-0.548-0.466-1.37-0.535-2.885c-0.075-1.638-0.091-2.129-0.091-6.278
		C2.799,11.388,2.815,10.897,2.891,9.259z"/>
	<path style="fill-rule:evenodd;clip-rule:evenodd;fill:#231F20;" d="M15.536,7.559c-4.406,0-7.978,3.572-7.978,7.978
		s3.572,7.978,7.978,7.978c4.407,0,7.978-3.572,7.978-7.978S19.943,7.559,15.536,7.559 M15.536,20.716
		c-2.86,0-5.179-2.319-5.179-5.179s2.319-5.179,5.179-5.179c2.861,0,5.179,2.319,5.179,5.179S18.397,20.716,15.536,20.716"/>
	<path style="fill-rule:evenodd;clip-rule:evenodd;fill:#231F20;" d="M25.694,7.243c0,1.03-0.834,1.865-1.864,1.865
		s-1.865-0.835-1.865-1.865c0-1.03,0.835-1.864,1.865-1.864S25.694,6.213,25.694,7.243"/>
</g>
</svg>
